<?xml version="1.0" encoding="utf-8"?>
<svg xmlns="http://www.w3.org/2000/svg" viewBox="1 33 30 29.9851" width="7.5px" height="7.49627px" xmlns:bx="https://boxy-svg.com" preserveAspectRatio="none"><g id="object-3" transform="matrix(0.9999999999999999, 0, 0, 0.9999999999999999, -7.105427357601002e-15, -1.7763568394002505e-15)"><path style="fill: rgba(0, 0, 0, 0); stroke: rgb(0, 0, 0); stroke-width: 7.59725px; transform-box: fill-box; transform-origin: 50% 50%;" transform="matrix(0.240732, 0, 0, 0.2468, -699, -427.129272)" d="M 709.363557982 414.374 L 720.636442018 414.374 L 731.724036127 432.438965097 A 47.596 47.596 0 0 1 739.411954007 436.14127122 L 760.448714304 433.54657985 L 767.477242538 442.360075487 L 760.26648595 462.292027136 A 47.596 47.596 0 0 1 762.165244861 470.61103348 L 777.31006177 485.440471361 L 774.801609086 496.430720659 L 754.722348584 503.220492729 A 47.596 47.596 0 0 1 749.402144339 509.891817841 L 747.25066183 530.978515783 L 737.094144262 535.869636859 L 719.266472547 524.404392497 A 47.596 47.596 0 0 1 710.733527453 524.404392497 L 692.905855738 535.869636859 L 682.74933817 530.978515783 L 680.597855661 509.891817841 A 47.596 47.596 0 0 1 675.277651416 503.220492729 L 655.198390914 496.430720659 L 652.68993823 485.440471361 L 667.834755139 470.61103348 A 47.596 47.596 0 0 1 669.73351405 462.292027136 L 662.522757462 442.360075487 L 669.551285696 433.54657985 L 690.588045993 436.14127122 A 47.596 47.596 0 0 1 698.275963873 432.438965097 Z M 715 456.333 A 20.667 20.667 0 0 0 715 497.667 A 20.667 20.667 0 0 0 715 456.333" bx:shape="cog 715 477 20.667 47.596 62.626 0.6 7 1@c0d55e4f"/></g></svg>