<?xml version="1.0" encoding="utf-8"?>
<svg xmlns="http://www.w3.org/2000/svg" viewBox="32.9995 0.9995 30.0005 30" width="7.50012px" height="7.5px" preserveAspectRatio="none"><g id="object-2" transform="matrix(0.9999999999999999, 0, 0, 0.9999999999999999, -7.105427357601002e-15, -1.7763568394002505e-15)"><path style="fill: rgba(0, 0, 0, 0); stroke: rgb(0, 0, 0); stroke-width: 2;" d="M 48.323 1.195 C 49.306 1.456 50.216 1.965 50.953 2.679 C 52.013 2.31 53.158 2.253 54.244 2.504 L 51.855 1.515 C 50.693 1.033 49.466 0.948 48.323 1.195 Z M 55.329 2.954 C 55.683 3.085 56.028 3.255 56.357 3.457 C 55.709 2.994 54.991 2.676 54.244 2.504 L 55.329 2.954 Z M 56.357 3.457 C 56.619 3.645 56.87 3.858 57.105 4.094 L 58.744 5.731 L 57.752 4.65 C 57.433 4.276 57.064 3.94 56.65 3.651 C 56.554 3.583 56.456 3.519 56.357 3.457 Z M 60.294 7.423 C 60.519 7.669 60.719 7.928 60.895 8.198 C 60.839 8.098 60.779 7.999 60.717 7.901 C 60.445 7.472 60.124 7.087 59.763 6.751 L 58.744 5.731 L 60.294 7.423 Z M 61.437 13.631 C 62.119 14.397 62.589 15.327 62.804 16.321 C 63.102 15.192 63.07 13.963 62.64 12.779 L 61.755 10.349 C 61.959 11.447 61.851 12.587 61.437 13.631 Z M 62.804 16.321 C 62.544 17.306 62.034 18.216 61.321 18.953 C 61.689 20.014 61.747 21.159 61.495 22.246 L 62.486 19.855 C 62.967 18.692 63.053 17.465 62.804 16.321 Z M 61.048 23.328 C 60.914 23.685 60.742 24.034 60.536 24.366 C 61.004 23.717 61.322 22.995 61.495 22.246 L 61.048 23.328 Z M 60.536 24.366 C 60.351 24.624 60.141 24.872 59.908 25.105 L 58.286 26.726 L 59.352 25.752 C 59.725 25.432 60.06 25.063 60.35 24.649 C 60.415 24.556 60.477 24.462 60.536 24.366 Z M 56.578 28.293 C 56.332 28.518 56.071 28.719 55.802 28.894 C 55.903 28.839 56.002 28.778 56.099 28.716 C 56.527 28.445 56.913 28.123 57.251 27.763 L 58.286 26.726 L 56.578 28.293 Z M 50.371 29.436 C 49.604 30.118 48.674 30.588 47.679 30.804 C 48.809 31.101 50.04 31.07 51.221 30.639 L 53.656 29.754 C 52.559 29.958 51.415 29.851 50.371 29.436 Z M 47.679 30.804 C 46.695 30.543 45.786 30.034 45.047 29.32 C 43.987 29.689 42.844 29.747 41.757 29.495 L 44.145 30.485 C 45.308 30.966 46.535 31.052 47.679 30.804 Z M 40.672 29.047 C 40.315 28.913 39.968 28.742 39.636 28.536 C 40.284 29.004 41.008 29.322 41.757 29.495 L 40.672 29.047 Z M 39.636 28.536 C 39.375 28.35 39.129 28.14 38.895 27.906 L 37.274 26.286 L 38.249 27.351 C 38.568 27.724 38.937 28.06 39.351 28.35 C 39.444 28.415 39.539 28.477 39.636 28.536 Z M 35.709 24.577 C 35.481 24.329 35.279 24.068 35.102 23.797 C 35.159 23.898 35.22 23.999 35.283 24.1 C 35.557 24.528 35.877 24.912 36.237 25.25 L 37.274 26.286 L 35.709 24.577 Z M 34.563 18.369 C 33.882 17.603 33.412 16.673 33.195 15.678 C 32.897 16.808 32.93 18.038 33.361 19.22 L 34.245 21.649 C 34.04 20.552 34.151 19.412 34.563 18.369 Z M 33.195 15.678 C 33.456 14.693 33.965 13.784 34.679 13.046 C 34.311 11.986 34.254 10.841 34.505 9.753 L 33.514 12.144 C 33.033 13.307 32.948 14.535 33.195 15.678 Z M 34.953 8.671 C 35.086 8.314 35.259 7.966 35.464 7.634 C 34.996 8.282 34.678 9.004 34.505 9.753 L 34.953 8.671 Z M 35.464 7.634 C 35.65 7.375 35.86 7.128 36.093 6.894 L 37.714 5.273 L 36.65 6.247 C 36.276 6.567 35.94 6.936 35.651 7.35 C 35.586 7.443 35.523 7.538 35.464 7.634 Z M 39.423 3.708 C 39.67 3.48 39.932 3.278 40.204 3.101 C 40.101 3.158 40 3.219 39.9 3.282 C 39.473 3.555 39.087 3.876 38.75 4.236 L 37.714 5.273 L 39.423 3.708 Z M 45.632 2.563 C 46.398 1.882 47.328 1.412 48.323 1.195 C 47.192 0.897 45.963 0.93 44.779 1.361 L 42.344 2.246 C 43.443 2.042 44.586 2.15 45.632 2.563 Z M 42.344 2.246 C 41.594 2.386 40.866 2.67 40.204 3.101 C 40.539 2.915 40.887 2.763 41.245 2.645 L 42.344 2.246 Z M 34.245 21.649 C 34.384 22.4 34.668 23.131 35.102 23.797 C 34.915 23.46 34.764 23.113 34.647 22.754 L 34.245 21.649 Z M 53.656 29.754 C 54.407 29.614 55.137 29.328 55.802 28.894 C 55.466 29.084 55.115 29.236 54.755 29.354 L 53.656 29.754 Z M 61.755 10.349 C 61.615 9.596 61.331 8.866 60.895 8.198 C 61.084 8.536 61.236 8.886 61.353 9.246 L 61.755 10.349 Z M 44.443 12.106 C 44.173 11.97 44.039 12.038 44.039 12.309 L 44.038 21.671 C 44.038 21.943 44.172 22.012 44.443 21.876 L 53.742 17.194 C 54.012 17.06 54.012 16.923 53.742 16.788 L 44.443 12.106 Z"/></g></svg>